<svg xmlns="http://www.w3.org/2000/svg" xmlns:xlink="http://www.w3.org/1999/xlink" width="1200" zoomAndPan="magnify" viewBox="0 0 900 225" height="300" preserveAspectRatio="xMidYMid meet" version="1.0"><defs><g/><clipPath id="b99affc592"><path d="M 70 61.671875 L 137 61.671875 L 137 92 L 70 92 Z M 70 61.671875 " clip-rule="nonzero"/></clipPath><clipPath id="503d21c432"><path d="M 34.5 89 L 143 89 L 143 166.671875 L 34.5 166.671875 Z M 34.5 89 " clip-rule="nonzero"/></clipPath></defs><g clip-path="url(#b99affc592)"><path fill="#3fbb69" d="M 70.765625 91.59375 L 111.429688 61.679688 L 136.753906 91.59375 Z M 70.765625 91.59375 " fill-opacity="1" fill-rule="nonzero"/></g><path stroke-linecap="round" transform="matrix(0.0656398, 0, 0, -0.0656398, -47.877932, 253.750019)" fill="none" stroke-linejoin="round" d="M 2285.184472 2754.08205 L 2416.880985 2853.880989 L 2522.809495 2729.801807 " stroke="#ffffff" stroke-width="30" stroke-opacity="1" stroke-miterlimit="10"/><path fill="#ffffff" d="M 113.097656 92.636719 C 113.609375 91.441406 113.890625 90.128906 113.890625 88.746094 C 113.890625 83.210938 109.355469 78.726562 103.761719 78.726562 C 98.164062 78.726562 93.628906 83.210938 93.628906 88.746094 C 93.628906 90.128906 93.910156 91.441406 94.421875 92.636719 L 113.097656 92.636719 " fill-opacity="1" fill-rule="nonzero"/><path fill="#3fbb69" d="M 47.304688 92.527344 L 93.628906 66.421875 L 113.292969 92.527344 Z M 47.304688 92.527344 " fill-opacity="1" fill-rule="nonzero"/><path fill="#ffffff" d="M 93.367188 93.570312 C 93.871094 92.375 94.152344 91.054688 94.152344 89.675781 C 94.152344 84.144531 89.617188 79.660156 84.023438 79.660156 C 78.433594 79.660156 73.898438 84.144531 73.898438 89.675781 C 73.898438 91.054688 74.179688 92.375 74.691406 93.570312 L 93.367188 93.570312 " fill-opacity="1" fill-rule="nonzero"/><path stroke-linecap="round" transform="matrix(0.0656398, 0, 0, -0.0656398, -47.877932, 253.750019)" fill="none" stroke-linejoin="round" d="M 2003.283712 2723.196153 L 2136.408475 2800.202609 L 2233.886508 2666.423232 " stroke="#ffffff" stroke-width="30" stroke-opacity="1" stroke-miterlimit="10"/><g clip-path="url(#503d21c432)"><path fill="#f4fffa" d="M 142.234375 155.21875 C 142.234375 161.570312 137.324219 166.71875 131.273438 166.71875 L 45.4375 166.71875 C 39.382812 166.71875 34.472656 161.570312 34.472656 155.21875 L 34.472656 101.222656 C 34.472656 94.867188 39.382812 89.714844 45.4375 89.714844 L 131.273438 89.714844 C 137.324219 89.714844 142.234375 94.867188 142.234375 101.222656 L 142.234375 155.21875 " fill-opacity="1" fill-rule="nonzero"/></g><path fill="#d9efe0" d="M 148.871094 114.449219 L 113.226562 114.449219 C 105.234375 114.449219 98.753906 120.613281 98.753906 128.21875 C 98.753906 135.828125 105.234375 141.992188 113.226562 141.992188 L 148.871094 141.992188 L 148.871094 114.449219 " fill-opacity="1" fill-rule="nonzero"/><path fill="#7f8b92" d="M 116.03125 128.21875 C 116.03125 131.300781 113.535156 133.800781 110.453125 133.800781 C 107.375 133.800781 104.871094 131.300781 104.871094 128.21875 C 104.871094 125.140625 107.375 122.640625 110.453125 122.640625 C 113.535156 122.640625 116.03125 125.140625 116.03125 128.21875 " fill-opacity="1" fill-rule="nonzero"/><g fill="#1b2024" fill-opacity="1"><g transform="translate(169.009608, 153.834954)"><g><path d="M 83.351562 -87.425781 C 83.234375 -88.382812 82.515625 -88.382812 81.914062 -88.382812 C 81.796875 -88.382812 81.316406 -87.902344 80.957031 -87.902344 C 80.480469 -87.785156 79.640625 -87.785156 79.042969 -87.785156 C 73.773438 -87.664062 68.503906 -86.824219 63.351562 -86.226562 C 57.84375 -85.507812 52.335938 -85.148438 46.824219 -84.550781 L 44.550781 -84.191406 C 44.550781 -84.671875 44.429688 -85.03125 44.191406 -85.390625 C 43.351562 -86.226562 42.875 -87.066406 41.914062 -87.785156 C 40.238281 -88.980469 37.484375 -90.179688 35.449219 -89.460938 C 32.574219 -88.503906 33.890625 -85.628906 32.335938 -83.472656 C 30.417969 -80.597656 23.59375 -82.273438 20.359375 -81.078125 C 18.921875 -80.597656 18.324219 -79.878906 18.203125 -78.5625 C 17.484375 -73.054688 24.671875 -72.335938 28.503906 -72.933594 C 27.664062 -70.300781 18.082031 -41.316406 17.964844 -41.316406 C 18.203125 -41.675781 18.441406 -42.035156 18.5625 -42.394531 C 18.203125 -41.199219 17.363281 -37.964844 16.765625 -37.84375 C 16.886719 -37.964844 17.125 -38.921875 17.125 -38.921875 C 16.886719 -39.042969 16.765625 -38.082031 16.648438 -38.082031 C 16.046875 -37.964844 15.328125 -37.605469 14.609375 -37.484375 C 13.054688 -37.363281 11.019531 -37.484375 9.460938 -37.003906 C 9.460938 -36.886719 9.339844 -36.886719 9.222656 -36.886719 C 4.789062 -34.851562 9.941406 -30.417969 13.171875 -30.417969 C 11.378906 -26.226562 10.539062 -21.917969 8.863281 -17.722656 C 8.144531 -15.570312 7.1875 -13.53125 6.347656 -11.378906 L 5.03125 -8.023438 C 5.03125 -7.785156 4.550781 -5.988281 4.671875 -5.867188 L 4.070312 -4.070312 C 4.191406 -4.429688 4.550781 -5.628906 4.550781 -5.628906 C 3.953125 -5.507812 2.875 -0.71875 2.632812 -0.121094 C 1.558594 1.796875 0.238281 3.351562 0 5.628906 C -0.480469 11.136719 4.429688 15.570312 9.101562 17.484375 C 16.648438 20.597656 25.03125 14.25 30.777344 9.941406 C 33.652344 7.664062 36.167969 5.269531 38.800781 2.875 C 40.597656 1.199219 42.875 -1.078125 43.710938 -3.351562 C 44.671875 -5.867188 43.472656 -6.347656 41.316406 -5.269531 C 36.765625 -2.875 32.335938 -0.121094 27.785156 2.277344 C 23.113281 4.789062 17.605469 8.382812 12.335938 9.339844 C 12.214844 8.863281 12.695312 7.425781 12.335938 7.066406 C 11.976562 6.707031 11.496094 9.339844 11.496094 8.980469 C 11.617188 6.828125 12.695312 4.910156 13.414062 2.753906 C 14.492188 -0.359375 15.570312 -3.472656 16.765625 -6.585938 C 18.800781 -12.335938 20.839844 -17.964844 22.632812 -23.832031 L 24.070312 -28.261719 C 24.429688 -29.222656 25.03125 -32.453125 25.75 -33.054688 C 27.066406 -34.011719 30.058594 -33.773438 31.617188 -34.011719 C 33.652344 -34.25 34.492188 -35.210938 36.167969 -35.449219 C 38.441406 -35.808594 40.597656 -36.289062 42.875 -36.527344 C 44.070312 -36.765625 45.988281 -36.886719 47.066406 -37.605469 C 48.144531 -38.082031 47.664062 -38.324219 48.621094 -38.5625 C 50.417969 -39.042969 52.933594 -38.5625 54.492188 -39.878906 C 55.449219 -40.71875 55.808594 -41.796875 54.371094 -42.273438 C 54.132812 -42.394531 53.773438 -41.796875 53.414062 -41.675781 L 51.855469 -41.675781 C 49.101562 -41.558594 46.46875 -41.199219 43.710938 -40.839844 C 38.5625 -40.238281 33.292969 -39.878906 28.023438 -39.28125 C 28.742188 -41.316406 35.328125 -59.878906 37.84375 -65.988281 C 36.765625 -63.472656 34.851562 -58.5625 33.414062 -54.609375 C 34.492188 -57.722656 35.6875 -60.71875 36.886719 -63.832031 L 39.402344 -70.179688 C 39.640625 -70.898438 40.957031 -75.6875 41.675781 -75.808594 C 41.4375 -75.449219 41.4375 -75.210938 41.4375 -74.851562 C 41.675781 -75.089844 41.914062 -75.449219 41.914062 -75.808594 L 44.070312 -76.167969 C 45.269531 -76.527344 46.585938 -76.886719 47.785156 -77.125 C 49.941406 -77.363281 52.214844 -77.363281 54.371094 -78.203125 C 55.210938 -78.441406 54.96875 -78.683594 56.167969 -79.042969 C 57.125 -79.402344 58.203125 -79.402344 59.160156 -79.519531 C 61.554688 -79.878906 63.953125 -80.597656 66.347656 -81.078125 C 68.621094 -81.4375 71.019531 -82.035156 73.054688 -82.992188 C 73.171875 -83.113281 73.292969 -83.351562 73.171875 -83.59375 C 73.652344 -83.832031 74.011719 -83.832031 74.371094 -83.59375 C 75.328125 -83.953125 76.40625 -83.832031 77.484375 -84.070312 C 78.800781 -84.429688 83.59375 -85.148438 83.351562 -87.425781 Z M 22.15625 -44.789062 C 20.597656 -41.078125 18.921875 -37.84375 17.363281 -34.25 L 22.992188 -49.699219 C 23.953125 -52.8125 25.390625 -55.808594 26.585938 -58.921875 C 25.148438 -54.492188 24.070312 -49.222656 22.15625 -44.789062 Z M 28.023438 -40.238281 C 28.144531 -39.640625 27.902344 -39.28125 27.542969 -39.28125 L 29.101562 -43.113281 Z M 38.5625 -67.542969 C 38.5625 -67.425781 38.441406 -67.183594 38.441406 -67.183594 C 38.441406 -67.304688 38.5625 -67.425781 38.5625 -67.542969 Z M 38.5625 -67.542969 C 38.683594 -67.664062 38.683594 -67.785156 38.800781 -67.785156 C 38.683594 -67.785156 38.683594 -67.664062 38.5625 -67.542969 Z M 38.203125 -66.824219 L 37.84375 -65.988281 Z M 38.203125 -66.824219 "/></g></g></g><g fill="#1b2024" fill-opacity="1"><g transform="translate(224.695137, 153.834954)"><g><path d="M 53.054688 -28.503906 C 52.933594 -29.460938 51.976562 -30.417969 51.019531 -30.058594 C 49.820312 -29.699219 47.785156 -25.75 47.066406 -24.671875 C 45.269531 -22.15625 43.351562 -19.640625 41.4375 -17.125 C 40.957031 -16.527344 37.246094 -11.136719 37.246094 -11.136719 C 37.605469 -11.257812 37.84375 -11.496094 38.082031 -11.617188 C 35.089844 -8.023438 30.417969 -4.191406 26.585938 -1.199219 C 25.390625 -0.121094 22.515625 3.113281 20.480469 2.035156 C 18.5625 1.199219 18.203125 -3.113281 17.964844 -4.910156 C 17.722656 -7.1875 18.324219 -7.664062 19.640625 -9.339844 C 20.480469 -10.539062 21.078125 -11.855469 21.796875 -13.171875 C 22.394531 -14.25 29.582031 -23.832031 32.335938 -26.707031 C 30.660156 -25.148438 27.664062 -21.917969 27.183594 -21.4375 C 29.820312 -24.550781 32.8125 -28.382812 36.648438 -30.058594 C 36.648438 -30.058594 35.570312 -29.339844 35.570312 -29.222656 C 35.6875 -29.101562 38.441406 -29.820312 38.324219 -30.300781 C 38.082031 -30.417969 37.964844 -30.417969 37.84375 -30.417969 C 38.5625 -30.660156 39.042969 -29.941406 39.761719 -30.660156 C 40.957031 -31.976562 39.042969 -33.53125 37.84375 -33.652344 C 37.484375 -33.773438 37.125 -33.652344 36.765625 -33.652344 C 34.730469 -33.53125 33.890625 -32.09375 32.574219 -31.378906 C 31.136719 -30.660156 30.417969 -30.898438 28.980469 -29.339844 C 28.023438 -28.382812 21.199219 -19.402344 21.4375 -19.160156 C 21.675781 -19.160156 21.796875 -19.28125 21.917969 -19.402344 L 20.71875 -17.722656 C 20.597656 -17.964844 21.078125 -18.203125 20.839844 -18.324219 C 20.359375 -18.5625 17.722656 -15.089844 17.605469 -14.96875 C 17.605469 -15.808594 17.964844 -24.789062 17.964844 -24.789062 C 17.246094 -24.789062 17.84375 -15.328125 17.246094 -14.371094 C 17.246094 -20.121094 17.605469 -25.867188 18.203125 -31.617188 C 18.203125 -31.617188 18.082031 -29.582031 18.203125 -29.582031 C 18.683594 -29.582031 19.042969 -34.132812 18.800781 -34.132812 C 18.5625 -34.011719 18.441406 -33.773438 18.441406 -33.652344 C 18.5625 -34.609375 19.402344 -34.96875 19.042969 -36.167969 C 18.5625 -37.484375 17.125 -38.082031 15.929688 -38.203125 C 14.25 -38.441406 12.574219 -37.84375 11.257812 -37.003906 C 8.980469 -35.808594 8.621094 -34.492188 7.785156 -32.453125 C 7.1875 -30.777344 6.585938 -29.582031 6.46875 -27.425781 C 6.347656 -25.03125 6.585938 -22.515625 6.707031 -20 C 6.707031 -18.921875 8.023438 -6.585938 8.503906 -6.707031 C 8.621094 -6.945312 8.621094 -7.1875 8.621094 -7.425781 L 9.339844 -4.429688 C 9.101562 -4.429688 9.101562 -5.148438 8.863281 -5.148438 C 8.742188 -5.03125 9.101562 -3.472656 9.101562 -3.234375 C 8.863281 -2.277344 8.261719 -1.796875 7.542969 -0.957031 C 6.226562 0.597656 5.148438 2.277344 3.832031 3.710938 C 2.632812 4.789062 1.4375 5.867188 0 6.585938 C -0.71875 6.945312 -1.917969 7.1875 -2.394531 7.902344 C -4.3125 10.539062 -0.359375 11.855469 1.675781 11.019531 C 5.507812 9.582031 8.621094 5.507812 10.898438 2.277344 C 12.453125 5.269531 16.40625 7.902344 19.640625 8.144531 C 20.121094 8.144531 20.359375 8.261719 20.71875 8.144531 C 21.4375 8.144531 22.035156 7.902344 22.632812 7.664062 C 22.753906 7.542969 24.789062 6.109375 24.070312 6.226562 L 24.671875 5.988281 L 24.429688 6.226562 C 24.671875 6.347656 27.304688 4.191406 27.542969 3.953125 C 29.460938 2.992188 31.136719 1.917969 32.8125 0.480469 C 36.046875 -2.515625 38.683594 -6.226562 41.316406 -9.582031 C 44.070312 -13.054688 46.46875 -16.289062 48.621094 -20 C 50.058594 -22.394531 53.171875 -25.269531 53.054688 -28.503906 Z M 17.484375 -6.707031 L 17.484375 -5.867188 C 17.605469 -4.789062 17.722656 -3.710938 17.964844 -2.632812 C 17.605469 -3.953125 17.007812 -6.226562 17.484375 -6.707031 Z M 17.484375 -6.707031 "/></g></g></g><g fill="#1b2024" fill-opacity="1"><g transform="translate(269.004061, 153.834954)"><g><path d="M 67.785156 -29.699219 C 67.066406 -29.582031 60.839844 -27.664062 61.199219 -26.707031 C 61.199219 -26.585938 61.4375 -26.46875 61.554688 -26.46875 C 59.519531 -25.628906 56.886719 -25.507812 54.851562 -24.191406 C 52.574219 -22.632812 50.417969 -21.078125 48.023438 -19.761719 C 50.179688 -23.472656 52.214844 -27.425781 53.53125 -31.378906 C 54.011719 -32.8125 56.765625 -41.675781 54.96875 -42.632812 C 54.730469 -42.753906 54.609375 -41.675781 54.492188 -41.078125 C 54.609375 -45.867188 53.054688 -53.171875 46.585938 -53.652344 C 42.632812 -53.890625 38.921875 -48.980469 36.765625 -46.347656 C 31.855469 -40.121094 27.542969 -33.414062 23.234375 -26.945312 C 22.035156 -25.148438 10.058594 -5.75 10.058594 -5.75 C 10.058594 -5.75 10.898438 -6.945312 11.976562 -8.503906 C 10.898438 -6.707031 9.820312 -4.789062 8.863281 -2.875 C 9.339844 -4.671875 13.890625 -18.921875 16.765625 -27.304688 C 17.007812 -27.664062 17.125 -28.144531 17.246094 -28.503906 L 17.964844 -30.539062 L 17.964844 -30.417969 C 19.042969 -33.652344 20.121094 -36.886719 21.078125 -40.238281 C 21.078125 -39.878906 20.597656 -38.082031 20.71875 -38.082031 C 21.4375 -37.964844 22.394531 -42.992188 21.917969 -42.992188 L 21.558594 -42.394531 C 21.917969 -44.191406 22.515625 -45.03125 21.4375 -47.066406 C 20.597656 -48.863281 19.160156 -50.539062 17.125 -51.019531 C 13.171875 -52.09375 11.257812 -48.863281 11.496094 -45.75 C 11.496094 -45.269531 12.097656 -45.03125 12.097656 -44.550781 C 12.097656 -43.953125 11.496094 -42.875 11.378906 -42.394531 C 10.539062 -39.878906 9.941406 -37.484375 8.980469 -35.089844 C 8.503906 -33.773438 4.070312 -21.316406 4.070312 -21.316406 C 4.3125 -21.4375 4.429688 -21.675781 4.550781 -21.917969 C 4.191406 -20.839844 3.832031 -19.761719 3.351562 -18.683594 C 3.234375 -18.800781 3.710938 -19.640625 3.472656 -19.640625 C 2.277344 -19.878906 -0.71875 -9.820312 -0.957031 -8.863281 C -1.4375 -6.585938 -2.035156 -4.429688 -2.875 -2.15625 C -3.234375 -0.957031 -3.710938 0.238281 -4.070312 1.558594 C -4.070312 1.675781 -4.671875 4.550781 -4.070312 3.472656 C -4.191406 3.832031 -4.3125 4.070312 -4.3125 4.3125 C -4.3125 4.191406 -4.429688 4.070312 -4.429688 3.953125 C -4.789062 4.070312 -5.03125 6.585938 -5.03125 6.707031 C -5.507812 8.023438 -6.109375 8.980469 -6.707031 10.179688 C -8.261719 14.011719 -9.101562 18.203125 -9.699219 22.273438 C -10.660156 28.503906 -13.53125 37.84375 -10.417969 43.59375 C -9.339844 45.628906 -5.988281 49.820312 -3.351562 47.304688 C -2.15625 46.109375 -2.15625 43.351562 -2.035156 41.914062 C -1.316406 37.964844 -0.71875 33.890625 0.121094 29.941406 L 1.199219 24.429688 C 1.316406 24.191406 2.277344 19.761719 1.917969 19.878906 C 1.675781 20.121094 1.4375 20.480469 1.316406 20.839844 C 1.917969 18.921875 2.753906 17.125 3.472656 15.089844 C 4.429688 12.214844 5.148438 9.460938 6.585938 6.828125 C 8.261719 4.191406 9.699219 1.316406 11.257812 -1.316406 C 12.453125 -3.472656 13.53125 -6.226562 14.851562 -8.023438 C 15.210938 -8.503906 15.929688 -8.742188 16.527344 -9.222656 C 17.722656 -10.539062 18.5625 -12.335938 19.519531 -13.773438 C 21.316406 -16.648438 22.875 -19.519531 24.789062 -22.15625 C 25.628906 -23.351562 35.210938 -36.765625 36.167969 -37.605469 C 35.929688 -37.484375 35.6875 -37.363281 35.449219 -37.125 C 36.40625 -38.324219 37.484375 -39.402344 38.441406 -40.359375 C 38.5625 -40.238281 37.722656 -39.519531 37.84375 -39.402344 C 38.082031 -39.28125 43.59375 -43.59375 44.550781 -43.710938 C 47.183594 -44.191406 46.226562 -39.160156 45.867188 -37.84375 C 45.269531 -35.089844 43.710938 -32.453125 42.394531 -30.058594 C 41.675781 -28.742188 40.957031 -27.542969 40.359375 -26.226562 C 40.238281 -26.109375 39.28125 -23.832031 39.640625 -24.070312 L 38.921875 -22.992188 C 39.160156 -23.351562 39.28125 -23.832031 39.28125 -23.832031 C 38.800781 -23.832031 38.203125 -21.796875 38.082031 -21.4375 C 37.363281 -20.238281 36.40625 -19.28125 35.449219 -18.324219 C 32.933594 -15.449219 30.660156 -12.453125 28.144531 -9.699219 C 26.226562 -7.664062 23.710938 -4.070312 20.839844 -3.351562 C 18.800781 -2.875 17.246094 -3.953125 18.324219 -0.71875 C 19.042969 1.558594 21.675781 6.828125 24.550781 6.828125 C 27.183594 6.828125 30.417969 2.875 31.976562 1.199219 C 33.773438 -0.839844 35.808594 -2.753906 37.722656 -4.910156 C 38.203125 -5.628906 43.710938 -12.214844 44.550781 -12.574219 L 44.429688 -12.574219 C 45.628906 -13.171875 46.824219 -12.695312 48.503906 -13.890625 C 49.460938 -14.609375 49.941406 -15.328125 51.019531 -16.046875 C 51.855469 -16.527344 52.214844 -17.125 52.574219 -17.484375 C 52.574219 -17.484375 52.574219 -17.363281 52.695312 -17.363281 C 53.890625 -18.5625 55.570312 -18.203125 57.125 -19.28125 C 59.042969 -20.597656 61.4375 -22.273438 63.113281 -23.832031 C 65.269531 -25.75 68.261719 -26.828125 69.222656 -30.058594 C 68.742188 -29.941406 68.144531 -29.941406 67.785156 -29.699219 Z M 6.46875 -17.484375 L 6.46875 -17.363281 C 6.347656 -15.808594 5.269531 -14.011719 4.671875 -12.574219 C 3.832031 -10.300781 3.113281 -8.023438 2.394531 -5.75 C 0.839844 -0.957031 -0.957031 3.832031 -2.875 8.382812 C -4.429688 12.214844 -5.867188 16.40625 -6.945312 20.597656 C -5.628906 14.730469 -3.472656 8.980469 -1.796875 3.472656 C -0.238281 -1.558594 2.15625 -6.46875 4.070312 -11.378906 C 4.3125 -11.976562 6.585938 -16.765625 6.347656 -17.722656 C 6.46875 -17.605469 6.46875 -17.484375 6.46875 -17.484375 Z M 11.738281 -13.890625 C 11.378906 -12.453125 11.019531 -11.136719 10.539062 -9.941406 C 10.898438 -11.136719 11.257812 -12.574219 11.738281 -13.890625 Z M 28.144531 -33.53125 L 25.867188 -30.179688 C 26.585938 -31.257812 27.304688 -32.453125 28.144531 -33.53125 Z M 47.664062 -19.042969 C 47.785156 -19.402344 48.382812 -19.519531 48.742188 -19.761719 Z M 19.042969 -33.054688 C 18.921875 -32.933594 18.800781 -32.574219 18.683594 -32.09375 Z M 18.203125 -31.019531 L 18.683594 -32.09375 Z M 24.429688 -28.023438 L 24.429688 -28.144531 C 24.550781 -28.261719 24.550781 -28.261719 24.550781 -28.382812 C 24.671875 -28.503906 24.550781 -28.261719 24.429688 -28.023438 Z M 18.203125 -31.019531 C 18.203125 -30.777344 18.082031 -30.660156 17.964844 -30.539062 Z M -7.1875 21.675781 C -7.1875 21.558594 -7.1875 21.558594 -7.066406 21.4375 C -7.066406 21.558594 -7.066406 21.558594 -7.1875 21.675781 Z M 12.453125 -15.328125 C 12.453125 -15.210938 12.335938 -15.210938 12.335938 -15.210938 Z M 12.453125 -15.328125 "/></g></g></g><g fill="#1b2024" fill-opacity="1"><g transform="translate(329.359993, 153.834954)"><g><path d="M 45.867188 -29.582031 C 45.867188 -29.460938 45.867188 -29.460938 45.75 -29.582031 L 45.75 -29.699219 C 43.832031 -32.933594 41.316406 -28.503906 40.238281 -26.945312 C 38.203125 -24.191406 36.289062 -21.558594 34.132812 -19.042969 C 32.335938 -16.886719 30.417969 -14.730469 28.980469 -12.453125 C 28.980469 -12.214844 28.742188 -11.617188 28.742188 -11.617188 C 28.261719 -10.898438 27.542969 -10.300781 26.945312 -9.582031 C 25.867188 -8.503906 24.789062 -7.304688 23.59375 -6.226562 C 21.796875 -4.550781 11.738281 4.910156 10.417969 -1.199219 C 9.699219 -4.191406 10.660156 -7.902344 11.257812 -10.777344 C 11.617188 -12.335938 11.976562 -13.773438 12.214844 -15.328125 C 12.453125 -16.527344 12.097656 -17.722656 12.695312 -18.921875 C 13.054688 -19.640625 13.171875 -19.519531 14.011719 -19.761719 L 16.046875 -20.480469 C 17.363281 -20.957031 18.683594 -21.4375 19.878906 -22.15625 C 21.675781 -23.234375 23.351562 -24.550781 24.910156 -25.867188 C 28.621094 -28.980469 32.574219 -32.695312 34.132812 -37.363281 C 34.96875 -40 35.089844 -42.875 33.414062 -45.148438 C 31.855469 -47.183594 29.222656 -48.261719 26.828125 -48.742188 C 20.359375 -49.941406 15.449219 -46.226562 11.738281 -41.316406 C 7.1875 -35.6875 3.953125 -28.742188 2.394531 -21.675781 C 1.558594 -18.203125 1.078125 -14.730469 0.480469 -11.136719 C -0.121094 -7.542969 -0.480469 -4.191406 1.4375 -0.839844 C 1.316406 -2.035156 1.078125 -3.113281 1.078125 -4.191406 C 1.078125 -4.789062 1.316406 -5.390625 1.316406 -5.867188 C 1.316406 -6.109375 1.078125 -6.828125 1.078125 -7.1875 C 1.078125 -8.261719 1.316406 -9.101562 1.558594 -10.179688 C 1.675781 -11.257812 1.558594 -12.335938 1.675781 -13.414062 C 1.796875 -14.609375 2.277344 -15.570312 2.753906 -16.648438 C 3.113281 -17.605469 3.234375 -18.441406 3.59375 -19.402344 C 3.953125 -20.238281 4.191406 -21.199219 4.550781 -22.15625 C 4.671875 -22.753906 5.269531 -23.472656 5.628906 -24.191406 C 5.269531 -23.113281 4.550781 -22.15625 4.3125 -21.199219 C 3.953125 -19.761719 4.191406 -18.203125 4.070312 -16.765625 C 3.832031 -15.210938 3.351562 -13.652344 3.113281 -11.976562 C 2.875 -10.417969 2.15625 -8.980469 1.917969 -7.425781 C 1.675781 -5.988281 1.199219 -4.910156 1.316406 -3.472656 C 1.316406 -2.632812 1.4375 -1.796875 1.558594 -1.078125 C 1.675781 -0.121094 2.277344 0.480469 2.875 1.199219 C 4.910156 3.59375 7.664062 5.507812 10.777344 6.347656 C 12.933594 6.945312 14.851562 6.828125 16.886719 5.75 C 19.761719 4.191406 22.273438 1.796875 24.429688 -0.480469 C 26.46875 -2.753906 28.023438 -5.269531 29.820312 -7.664062 C 31.496094 -9.820312 33.53125 -11.855469 35.210938 -14.011719 L 41.675781 -22.394531 L 45.390625 -27.304688 C 45.988281 -28.023438 46.347656 -28.621094 45.867188 -29.582031 Z M 16.167969 -28.261719 C 16.289062 -28.503906 16.289062 -28.621094 16.289062 -28.621094 C 18.082031 -32.453125 19.402344 -36.527344 21.917969 -40.238281 L 24.070312 -43.113281 C 24.550781 -43.710938 25.390625 -44.789062 26.226562 -45.03125 C 28.023438 -45.390625 28.503906 -42.273438 28.382812 -41.078125 L 27.902344 -38.5625 C 27.785156 -37.84375 28.023438 -37.363281 27.902344 -36.765625 C 27.664062 -36.046875 27.066406 -35.6875 26.707031 -35.089844 L 24.671875 -32.453125 C 21.917969 -29.222656 18.441406 -26.46875 14.609375 -24.429688 C 15.210938 -25.75 15.570312 -27.066406 16.167969 -28.261719 Z M 16.167969 -28.261719 "/></g></g></g><g fill="#1b2024" fill-opacity="1"><g transform="translate(366.603426, 153.834954)"><g><path d="M 49.582031 -28.503906 C 48.980469 -31.378906 47.304688 -29.460938 46.585938 -28.382812 C 44.910156 -26.347656 42.273438 -24.429688 40.238281 -22.515625 C 37.484375 -20.121094 34.730469 -17.605469 31.855469 -15.328125 C 30.417969 -14.132812 28.621094 -12.453125 26.828125 -11.855469 C 26.585938 -11.738281 25.75 -11.617188 25.75 -11.496094 L 25.628906 -11.617188 C 25.628906 -11.617188 25.507812 -13.53125 25.628906 -13.652344 C 25.75 -15.210938 26.226562 -16.765625 26.707031 -18.203125 C 26.828125 -18.441406 28.144531 -22.515625 27.902344 -22.515625 L 27.304688 -21.796875 C 28.023438 -23.234375 28.980469 -24.671875 29.820312 -26.226562 C 27.902344 -24.429688 26.585938 -22.394531 25.628906 -19.878906 C 25.148438 -18.683594 23.832031 -16.527344 23.59375 -14.730469 C 23.832031 -17.363281 25.628906 -20.839844 26.46875 -22.394531 C 27.664062 -24.910156 28.980469 -27.785156 30.539062 -30.179688 C 33.414062 -34.492188 39.640625 -38.441406 37.722656 -44.429688 C 36.046875 -50.058594 31.617188 -50.179688 28.144531 -46.945312 C 26.46875 -45.390625 12.214844 -27.183594 12.574219 -26.945312 C 12.574219 -26.945312 13.773438 -28.382812 15.328125 -30.417969 L 8.261719 -20.121094 C 8.144531 -20.121094 9.460938 -22.15625 9.339844 -22.273438 C 9.222656 -22.394531 8.382812 -21.558594 8.261719 -21.078125 C 8.503906 -23.59375 9.339844 -26.109375 9.582031 -28.621094 C 9.699219 -29.582031 9.582031 -30.300781 9.820312 -31.257812 C 10.300781 -32.8125 10.777344 -34.492188 11.496094 -35.808594 C 11.976562 -36.765625 12.933594 -37.605469 13.171875 -38.5625 C 13.652344 -40.121094 13.53125 -40.71875 14.609375 -42.035156 C 15.570312 -43.234375 17.007812 -44.429688 17.84375 -45.507812 C 19.878906 -48.503906 16.40625 -50.539062 14.492188 -50.898438 C 12.933594 -51.136719 11.378906 -51.257812 9.941406 -50.417969 C 8.382812 -49.460938 8.742188 -48.621094 8.382812 -47.304688 C 8.023438 -45.628906 6.828125 -43.710938 6.226562 -42.15625 C 5.269531 -39.640625 4.429688 -37.125 3.59375 -34.609375 C 2.632812 -32.09375 1.675781 -29.699219 0.957031 -27.183594 C 0.359375 -25.148438 0.480469 -23.234375 0.238281 -21.316406 C 0 -19.160156 -0.359375 -17.722656 0.71875 -15.808594 C 1.917969 -13.773438 5.148438 -10.660156 7.304688 -13.292969 L 7.785156 -12.335938 C 9.820312 -16.765625 12.933594 -20.71875 15.449219 -25.03125 C 16.527344 -26.945312 18.441406 -28.261719 20 -30.300781 C 22.15625 -33.171875 24.070312 -36.046875 26.46875 -38.800781 C 26.109375 -38.203125 24.550781 -35.449219 24.671875 -35.328125 C 24.910156 -35.449219 25.03125 -35.6875 25.269531 -35.929688 L 23.59375 -32.574219 C 23.472656 -32.695312 24.070312 -33.53125 23.832031 -33.53125 C 22.992188 -33.773438 20.480469 -27.066406 20.238281 -26.46875 C 19.402344 -23.832031 19.28125 -21.4375 19.042969 -18.683594 C 18.921875 -17.363281 18.683594 -16.046875 18.683594 -14.730469 C 18.683594 -13.414062 18.800781 -12.097656 19.402344 -10.777344 C 19.761719 -10.058594 20.238281 -9.101562 20.839844 -8.503906 C 20.957031 -8.503906 22.273438 -7.304688 21.675781 -8.261719 L 22.394531 -7.542969 L 22.035156 -7.785156 C 21.917969 -7.1875 26.347656 -4.789062 27.066406 -4.550781 C 30.417969 -3.472656 34.011719 -7.304688 36.167969 -9.582031 C 39.042969 -12.695312 41.4375 -16.289062 44.070312 -19.640625 C 45.507812 -21.558594 50.058594 -25.628906 49.582031 -28.503906 Z M 49.582031 -28.503906 "/></g></g></g><g fill="#1b2024" fill-opacity="1"><g transform="translate(407.439469, 153.834954)"><g><path d="M 47.542969 -28.144531 C 47.183594 -29.820312 46.226562 -30.058594 45.03125 -29.582031 C 42.753906 -28.503906 40.480469 -26.109375 38.324219 -24.671875 C 33.414062 -21.558594 28.503906 -19.042969 23.234375 -16.40625 C 23.234375 -16.527344 23.113281 -16.765625 22.992188 -17.125 C 23.113281 -16.527344 22.992188 -16.289062 22.875 -16.167969 C 21.675781 -21.316406 20.480469 -26.46875 19.519531 -31.738281 C 20 -29.460938 21.078125 -25.628906 21.917969 -22.394531 C 20.839844 -27.425781 19.519531 -33.652344 19.640625 -33.652344 C 19.402344 -33.53125 19.402344 -33.292969 19.402344 -33.054688 C 19.160156 -34.492188 18.800781 -36.289062 19.042969 -37.84375 C 19.160156 -39.640625 20.121094 -41.199219 20.71875 -42.875 C 20.597656 -42.035156 20.359375 -40.957031 20.359375 -40.957031 C 21.078125 -40.839844 21.558594 -45.269531 21.558594 -45.75 C 21.4375 -46.46875 19.878906 -48.742188 19.878906 -48.144531 C 16.648438 -51.136719 10.300781 -44.550781 9.339844 -41.675781 C 8.621094 -39.761719 8.621094 -37.722656 8.742188 -35.6875 C 8.863281 -33.652344 9.460938 -31.855469 10.058594 -29.941406 C 10.417969 -28.503906 9.941406 -27.542969 10.058594 -25.988281 C 10.300781 -23.59375 11.136719 -21.199219 11.617188 -18.921875 C 12.097656 -17.125 13.652344 -13.53125 13.292969 -11.855469 C 13.054688 -10.179688 9.460938 -8.742188 7.902344 -7.785156 C 5.867188 -6.46875 3.832031 -4.910156 1.796875 -3.351562 C -1.796875 -0.597656 -5.628906 2.875 -7.066406 7.304688 C -7.304688 7.902344 -8.144531 10.539062 -7.304688 11.019531 C -7.1875 11.136719 -6.828125 9.101562 -6.707031 8.863281 C -8.261719 16.765625 -0.480469 20.597656 6.828125 20.71875 C 15.089844 20.957031 20.839844 16.167969 23.710938 8.742188 C 24.910156 5.507812 25.269531 2.15625 25.148438 -1.199219 C 25.148438 -3.472656 24.910156 -5.628906 24.550781 -7.785156 C 24.3125 -9.699219 24.070312 -9.582031 25.390625 -10.660156 C 26.347656 -11.378906 27.785156 -11.855469 28.742188 -12.335938 C 32.574219 -14.371094 36.046875 -16.765625 39.519531 -19.28125 C 42.035156 -21.078125 48.023438 -24.191406 47.542969 -28.023438 Z M -0.839844 13.054688 C -3.953125 12.097656 -0.839844 7.1875 0.238281 5.628906 C 2.035156 3.234375 4.671875 1.4375 7.066406 -0.238281 L 10.660156 -2.632812 C 11.019531 -2.875 13.292969 -4.671875 12.574219 -4.429688 L 14.011719 -5.269531 L 13.171875 -4.550781 C 13.414062 -4.671875 13.773438 -4.789062 14.011719 -5.03125 C 14.132812 -2.15625 14.132812 0.71875 13.292969 3.59375 C 13.171875 4.070312 10.898438 8.863281 9.941406 9.820312 L 10.539062 9.339844 C 9.460938 10.660156 8.261719 11.738281 6.828125 12.574219 C 6.828125 12.453125 7.902344 11.738281 7.785156 11.617188 L 4.429688 12.933594 C 2.753906 13.292969 0.839844 13.652344 -0.839844 13.054688 Z M 14.25 16.527344 C 11.136719 17.84375 8.144531 18.441406 4.910156 18.5625 C 10.777344 18.203125 16.886719 15.328125 20.359375 10.417969 C 19.042969 13.054688 17.363281 15.089844 14.25 16.527344 Z M 22.992188 -17.484375 C 22.875 -18.324219 22.632812 -19.519531 22.273438 -20.839844 C 22.515625 -19.519531 22.753906 -18.203125 22.992188 -17.484375 Z M 24.550781 -5.03125 C 24.429688 -5.148438 24.429688 -5.390625 24.429688 -5.628906 C 24.429688 -5.390625 24.550781 -5.148438 24.550781 -5.03125 Z M 24.550781 -5.03125 "/></g></g></g><g fill="#1b2024" fill-opacity="1"><g transform="translate(446.239699, 153.834954)"><g><path d="M 45.867188 -29.582031 C 45.867188 -29.460938 45.867188 -29.460938 45.75 -29.582031 L 45.75 -29.699219 C 43.832031 -32.933594 41.316406 -28.503906 40.238281 -26.945312 C 38.203125 -24.191406 36.289062 -21.558594 34.132812 -19.042969 C 32.335938 -16.886719 30.417969 -14.730469 28.980469 -12.453125 C 28.980469 -12.214844 28.742188 -11.617188 28.742188 -11.617188 C 28.261719 -10.898438 27.542969 -10.300781 26.945312 -9.582031 C 25.867188 -8.503906 24.789062 -7.304688 23.59375 -6.226562 C 21.796875 -4.550781 11.738281 4.910156 10.417969 -1.199219 C 9.699219 -4.191406 10.660156 -7.902344 11.257812 -10.777344 C 11.617188 -12.335938 11.976562 -13.773438 12.214844 -15.328125 C 12.453125 -16.527344 12.097656 -17.722656 12.695312 -18.921875 C 13.054688 -19.640625 13.171875 -19.519531 14.011719 -19.761719 L 16.046875 -20.480469 C 17.363281 -20.957031 18.683594 -21.4375 19.878906 -22.15625 C 21.675781 -23.234375 23.351562 -24.550781 24.910156 -25.867188 C 28.621094 -28.980469 32.574219 -32.695312 34.132812 -37.363281 C 34.96875 -40 35.089844 -42.875 33.414062 -45.148438 C 31.855469 -47.183594 29.222656 -48.261719 26.828125 -48.742188 C 20.359375 -49.941406 15.449219 -46.226562 11.738281 -41.316406 C 7.1875 -35.6875 3.953125 -28.742188 2.394531 -21.675781 C 1.558594 -18.203125 1.078125 -14.730469 0.480469 -11.136719 C -0.121094 -7.542969 -0.480469 -4.191406 1.4375 -0.839844 C 1.316406 -2.035156 1.078125 -3.113281 1.078125 -4.191406 C 1.078125 -4.789062 1.316406 -5.390625 1.316406 -5.867188 C 1.316406 -6.109375 1.078125 -6.828125 1.078125 -7.1875 C 1.078125 -8.261719 1.316406 -9.101562 1.558594 -10.179688 C 1.675781 -11.257812 1.558594 -12.335938 1.675781 -13.414062 C 1.796875 -14.609375 2.277344 -15.570312 2.753906 -16.648438 C 3.113281 -17.605469 3.234375 -18.441406 3.59375 -19.402344 C 3.953125 -20.238281 4.191406 -21.199219 4.550781 -22.15625 C 4.671875 -22.753906 5.269531 -23.472656 5.628906 -24.191406 C 5.269531 -23.113281 4.550781 -22.15625 4.3125 -21.199219 C 3.953125 -19.761719 4.191406 -18.203125 4.070312 -16.765625 C 3.832031 -15.210938 3.351562 -13.652344 3.113281 -11.976562 C 2.875 -10.417969 2.15625 -8.980469 1.917969 -7.425781 C 1.675781 -5.988281 1.199219 -4.910156 1.316406 -3.472656 C 1.316406 -2.632812 1.4375 -1.796875 1.558594 -1.078125 C 1.675781 -0.121094 2.277344 0.480469 2.875 1.199219 C 4.910156 3.59375 7.664062 5.507812 10.777344 6.347656 C 12.933594 6.945312 14.851562 6.828125 16.886719 5.75 C 19.761719 4.191406 22.273438 1.796875 24.429688 -0.480469 C 26.46875 -2.753906 28.023438 -5.269531 29.820312 -7.664062 C 31.496094 -9.820312 33.53125 -11.855469 35.210938 -14.011719 L 41.675781 -22.394531 L 45.390625 -27.304688 C 45.988281 -28.023438 46.347656 -28.621094 45.867188 -29.582031 Z M 16.167969 -28.261719 C 16.289062 -28.503906 16.289062 -28.621094 16.289062 -28.621094 C 18.082031 -32.453125 19.402344 -36.527344 21.917969 -40.238281 L 24.070312 -43.113281 C 24.550781 -43.710938 25.390625 -44.789062 26.226562 -45.03125 C 28.023438 -45.390625 28.503906 -42.273438 28.382812 -41.078125 L 27.902344 -38.5625 C 27.785156 -37.84375 28.023438 -37.363281 27.902344 -36.765625 C 27.664062 -36.046875 27.066406 -35.6875 26.707031 -35.089844 L 24.671875 -32.453125 C 21.917969 -29.222656 18.441406 -26.46875 14.609375 -24.429688 C 15.210938 -25.75 15.570312 -27.066406 16.167969 -28.261719 Z M 16.167969 -28.261719 "/></g></g></g><g fill="#1b2024" fill-opacity="1"><g transform="translate(483.483144, 153.834954)"><g><path d="M 97.964844 -87.664062 C 97.84375 -88.261719 97.484375 -88.621094 96.886719 -88.742188 C 96.285156 -88.863281 96.167969 -88.144531 95.929688 -88.023438 C 95.328125 -88.023438 94.609375 -88.144531 94.011719 -88.261719 C 88.261719 -88.621094 82.515625 -88.503906 76.765625 -88.261719 C 75.328125 -88.144531 73.890625 -88.023438 72.453125 -88.023438 C 71.855469 -87.902344 70.898438 -87.664062 70.179688 -87.785156 C 69.101562 -88.144531 70.179688 -87.902344 69.460938 -88.621094 C 68.023438 -89.941406 67.542969 -90.898438 65.390625 -91.617188 C 63.351562 -92.214844 59.761719 -92.453125 58.203125 -90.660156 C 57.363281 -89.699219 57.363281 -87.785156 55.808594 -86.824219 C 54.851562 -86.226562 52.8125 -86.464844 51.734375 -86.347656 C 50.539062 -86.226562 49.339844 -85.988281 48.144531 -85.628906 C 45.867188 -85.148438 43.832031 -84.910156 41.4375 -84.671875 C 35.6875 -84.3125 30.058594 -83.234375 24.3125 -82.273438 C 23.113281 -82.15625 21.078125 -81.914062 19.761719 -81.199219 C 15.570312 -79.042969 20.238281 -74.96875 23.113281 -74.132812 C 26.109375 -73.292969 29.101562 -73.652344 32.09375 -74.011719 C 34.730469 -74.371094 37.484375 -74.371094 40 -75.089844 C 41.558594 -75.449219 42.632812 -76.046875 44.191406 -76.289062 C 46.226562 -76.527344 48.261719 -76.765625 50.300781 -77.125 C 45.03125 -66.46875 41.078125 -55.328125 36.886719 -44.3125 C 32.574219 -33.292969 28.261719 -22.273438 24.550781 -11.136719 C 23.113281 -6.585938 21.078125 -1.558594 18.082031 2.15625 C 16.648438 4.070312 16.167969 3.953125 14.25 2.515625 C 10.179688 -0.71875 7.664062 -5.628906 4.789062 -9.699219 C 3.953125 -10.898438 2.035156 -13.773438 0.480469 -12.097656 C -0.121094 -11.496094 0 -10.058594 0 -9.222656 C 0.121094 -5.148438 1.675781 0.359375 3.59375 3.953125 C 6.109375 8.742188 10.539062 12.453125 15.929688 12.933594 C 25.628906 13.773438 30.898438 -0.839844 33.53125 -7.785156 C 37.125 -17.605469 41.796875 -27.066406 45.75 -36.648438 C 46.585938 -38.800781 46.945312 -40.839844 47.425781 -42.875 C 48.144531 -45.507812 49.582031 -48.023438 50.660156 -50.539062 C 52.574219 -54.851562 54.132812 -59.402344 56.40625 -63.59375 L 60.957031 -72.695312 C 61.675781 -74.011719 62.632812 -75.328125 63.113281 -76.765625 C 63.234375 -77.363281 63.113281 -78.082031 63.351562 -78.5625 C 64.429688 -80.71875 67.902344 -80.121094 69.941406 -80.359375 L 78.5625 -81.796875 C 80 -82.035156 81.554688 -82.273438 83.113281 -82.632812 C 83.59375 -82.753906 84.191406 -82.875 84.671875 -83.113281 C 85.03125 -83.234375 85.390625 -83.953125 85.507812 -83.953125 C 87.542969 -84.671875 90.417969 -84.429688 92.574219 -84.910156 C 93.890625 -85.148438 98.203125 -85.507812 97.964844 -87.664062 Z M 52.335938 -59.878906 C 50.539062 -56.644531 44.671875 -43.234375 42.394531 -38.082031 C 44.789062 -44.191406 49.941406 -58.203125 52.09375 -63.113281 C 53.890625 -67.425781 57.84375 -73.171875 60.480469 -77.125 C 57.363281 -71.617188 55.210938 -65.390625 52.335938 -59.878906 Z M 52.335938 -59.878906 "/></g></g></g><g fill="#1b2024" fill-opacity="1"><g transform="translate(536.414332, 153.834954)"><g><path d="M 49.101562 -29.101562 C 48.382812 -32.214844 45.507812 -28.023438 44.910156 -27.304688 L 38.324219 -18.441406 L 31.855469 -9.941406 L 28.382812 -5.507812 C 28.023438 -5.03125 25.390625 -1.675781 25.628906 -1.675781 C 25.867188 -1.917969 26.226562 -1.917969 26.585938 -2.277344 C 24.789062 -0.359375 18.203125 5.628906 17.007812 4.191406 C 16.046875 2.992188 18.683594 -2.035156 19.042969 -3.234375 C 20.359375 -6.707031 21.558594 -10.300781 22.992188 -13.652344 C 24.550781 -17.125 26.347656 -20.597656 27.785156 -24.070312 C 29.222656 -27.785156 27.066406 -29.101562 23.59375 -29.941406 C 22.035156 -30.300781 20.121094 -30.300781 18.324219 -30.539062 C 18.324219 -30.417969 18.441406 -30.417969 18.441406 -30.417969 C 20 -30.179688 22.273438 -30.058594 24.191406 -29.460938 C 21.316406 -30.300781 17.722656 -29.941406 15.449219 -30.539062 C 13.890625 -30.898438 12.933594 -30.898438 13.171875 -32.695312 C 13.414062 -35.089844 15.929688 -37.605469 16.765625 -39.878906 C 16.765625 -39.761719 15.929688 -37.605469 16.046875 -37.605469 C 16.648438 -37.363281 17.605469 -40.71875 17.605469 -41.199219 C 17.484375 -41.796875 16.046875 -43.59375 15.929688 -42.875 L 16.167969 -42.515625 C 10.417969 -46.46875 3.59375 -38.324219 4.789062 -32.453125 C 5.03125 -31.617188 5.507812 -31.136719 5.867188 -30.179688 C 6.109375 -29.460938 5.867188 -28.621094 6.585938 -27.664062 C 9.101562 -24.550781 13.652344 -24.429688 17.246094 -25.148438 C 16.648438 -24.3125 10.300781 -10.898438 10.660156 -10.777344 L 9.820312 -7.785156 C 9.699219 -7.902344 10.179688 -8.863281 9.941406 -8.863281 C 9.101562 -8.980469 7.425781 -2.035156 7.304688 -1.4375 C 6.828125 1.4375 6.945312 3.953125 8.144531 6.585938 C 8.863281 8.261719 9.699219 9.699219 11.257812 10.660156 C 12.695312 11.617188 14.492188 12.097656 16.167969 11.738281 C 16.765625 11.496094 19.042969 9.941406 18.441406 10.058594 L 19.28125 9.699219 C 19.160156 9.820312 19.042969 9.941406 19.042969 10.058594 C 19.402344 10.179688 24.910156 5.75 25.628906 5.269531 C 29.460938 2.035156 32.574219 -1.917969 35.449219 -5.867188 C 38.324219 -9.941406 41.316406 -14.011719 44.070312 -18.082031 C 45.390625 -20 46.585938 -21.917969 47.542969 -23.953125 C 48.261719 -25.390625 49.460938 -27.425781 49.101562 -29.101562 Z M 13.292969 -14.730469 C 14.132812 -16.886719 15.089844 -18.921875 16.167969 -20.957031 C 16.40625 -21.316406 18.082031 -25.628906 18.921875 -25.867188 C 18.324219 -25.507812 15.808594 -19.640625 15.210938 -18.5625 L 12.933594 -13.292969 C 11.738281 -10.417969 10.417969 -7.425781 9.582031 -4.3125 C 10.417969 -7.902344 11.855469 -11.378906 13.292969 -14.730469 Z M 10.417969 8.261719 C 11.136719 9.222656 12.097656 10.179688 13.414062 10.660156 C 12.335938 10.300781 11.378906 9.699219 10.660156 8.980469 C 10.777344 8.980469 10.777344 9.101562 10.777344 9.222656 C 10.058594 8.261719 9.101562 6.226562 8.980469 5.867188 C 8.621094 4.429688 8.503906 2.753906 8.621094 1.316406 C 8.621094 0.121094 8.742188 -0.839844 8.980469 -1.917969 L 8.980469 -1.796875 C 8.742188 -0.238281 8.621094 1.316406 8.742188 2.992188 L 8.742188 3.59375 C 8.621094 3.472656 8.621094 3.351562 8.621094 3.351562 C 8.621094 3.351562 8.621094 3.472656 8.742188 3.710938 L 8.742188 3.832031 L 9.222656 6.347656 L 8.863281 4.789062 C 9.101562 5.507812 9.699219 6.828125 10.300781 8.144531 L 10.179688 8.023438 C 10.179688 8.144531 10.300781 8.261719 10.417969 8.382812 Z M 13.773438 -31.257812 C 14.371094 -30.777344 15.449219 -30.660156 16.527344 -30.539062 C 15.570312 -30.660156 14.730469 -30.898438 14.132812 -31.378906 C 14.132812 -31.378906 13.414062 -31.976562 13.292969 -32.214844 C 13.292969 -31.976562 13.53125 -31.378906 13.773438 -31.257812 Z M 26.347656 -21.917969 L 23.832031 -16.648438 L 26.347656 -22.035156 Z M 9.101562 -2.277344 C 9.101562 -2.15625 8.980469 -2.035156 8.980469 -1.917969 L 8.980469 -2.035156 C 8.980469 -2.15625 9.101562 -2.15625 9.101562 -2.277344 Z M 26.46875 -22.273438 L 26.46875 -22.15625 L 26.347656 -22.15625 Z M 26.46875 -22.273438 L 26.46875 -22.15625 L 26.347656 -22.15625 Z M 9.222656 -3.832031 C 9.222656 -3.953125 9.339844 -4.070312 9.339844 -4.3125 C 9.339844 -4.070312 9.222656 -3.953125 9.222656 -3.832031 Z M 9.699219 7.1875 C 9.699219 7.1875 9.820312 7.304688 9.820312 7.425781 C 9.820312 7.304688 9.699219 7.304688 9.699219 7.1875 Z M 13.414062 -32.453125 C 13.292969 -32.453125 13.292969 -32.335938 13.292969 -32.335938 Z M 13.414062 -32.453125 "/></g></g></g><g fill="#1b2024" fill-opacity="1"><g transform="translate(576.771371, 153.834954)"><g><path d="M 60.957031 -28.863281 C 60.839844 -31.496094 58.683594 -29.222656 57.964844 -28.261719 C 56.40625 -25.988281 54.96875 -23.59375 53.53125 -21.316406 C 50.300781 -16.40625 47.066406 -11.496094 43.351562 -6.828125 C 31.019531 8.382812 39.640625 -18.683594 38.683594 -18.441406 C 38.203125 -18.324219 37.84375 -16.527344 37.722656 -16.167969 C 38.683594 -20.480469 40.480469 -25.628906 42.753906 -29.820312 C 44.070312 -32.453125 45.628906 -34.609375 43.234375 -37.484375 C 38.800781 -42.875 33.652344 -37.964844 30.777344 -34.25 C 29.582031 -38.800781 27.183594 -45.507812 21.316406 -45.507812 C 18.683594 -45.507812 17.125 -44.191406 15.328125 -42.632812 C 14.25 -41.914062 13.414062 -41.796875 12.453125 -40.957031 C 10.898438 -39.878906 9.820312 -38.203125 8.742188 -36.765625 C 4.671875 -30.777344 1.796875 -23.234375 0.480469 -16.289062 C -0.121094 -12.933594 -0.359375 -9.222656 0.597656 -5.867188 C 1.199219 -3.953125 3.351562 0.359375 6.109375 0 C 6.226562 0 5.988281 -0.121094 5.628906 -0.359375 C 7.304688 0.121094 9.222656 -0.121094 10.660156 -1.078125 C 10.777344 -0.839844 9.339844 -0.238281 9.339844 -0.238281 C 10.660156 1.796875 20.480469 -10.058594 21.199219 -11.136719 C 22.753906 -13.292969 23.832031 -15.570312 25.269531 -17.84375 C 26.347656 -19.519531 28.023438 -21.675781 29.222656 -23.472656 C 29.101562 -22.632812 29.101562 -21.558594 29.101562 -21.558594 C 26.945312 -14.730469 24.910156 -7.304688 27.785156 -0.238281 C 29.101562 3.351562 32.335938 6.707031 36.40625 5.988281 C 40 5.390625 42.992188 1.917969 45.148438 -0.839844 C 47.785156 -3.953125 50.058594 -7.425781 52.335938 -11.019531 C 54.25 -14.25 56.046875 -17.484375 57.605469 -21.078125 C 58.5625 -23.351562 61.199219 -26.109375 60.957031 -28.863281 Z M 26.585938 -28.023438 C 25.988281 -27.183594 25.390625 -26.347656 24.910156 -25.507812 L 21.796875 -21.078125 C 19.761719 -18.082031 17.605469 -15.210938 15.328125 -12.453125 C 14.730469 -11.617188 11.855469 -7.902344 10.660156 -8.261719 C 8.863281 -8.863281 10.777344 -15.089844 11.019531 -16.046875 C 11.378906 -17.722656 17.722656 -36.167969 19.402344 -36.527344 C 17.246094 -36.648438 10.300781 -14.96875 9.941406 -13.171875 C 10.898438 -19.042969 13.054688 -24.789062 15.449219 -30.179688 C 16.765625 -32.933594 19.761719 -40.238281 23.710938 -40.238281 C 25.867188 -40.238281 26.347656 -35.808594 26.707031 -34.371094 C 26.585938 -34.609375 25.507812 -38.082031 25.390625 -37.964844 C 24.789062 -37.484375 27.183594 -30.898438 27.183594 -29.941406 C 27.183594 -28.980469 27.183594 -28.980469 26.585938 -28.023438 Z M 29.339844 -22.15625 C 29.339844 -22.15625 29.699219 -23.832031 29.820312 -24.191406 L 30.417969 -25.03125 Z M 27.542969 -29.582031 L 27.542969 -30.777344 C 27.902344 -30.300781 27.902344 -29.941406 27.542969 -29.582031 Z M 27.542969 -29.582031 "/></g></g></g><g fill="#1b2024" fill-opacity="1"><g transform="translate(628.98403, 153.834954)"><g><path d="M 43.351562 -22.15625 C 44.429688 -23.710938 48.742188 -28.261719 46.945312 -30.300781 C 44.550781 -32.695312 38.324219 -22.753906 37.363281 -21.558594 C 35.449219 -19.042969 33.414062 -16.648438 31.496094 -14.25 C 30.417969 -12.933594 29.339844 -11.617188 28.144531 -10.417969 C 27.902344 -10.179688 25.628906 -7.304688 25.867188 -7.304688 C 26.226562 -7.425781 26.585938 -7.664062 26.945312 -7.902344 C 24.910156 -5.75 22.15625 -3.832031 19.640625 -1.917969 C 17.964844 -0.71875 14.730469 1.917969 12.695312 0.480469 C 11.855469 0 11.617188 -1.199219 11.378906 -2.035156 C 10.539062 -5.75 11.136719 -10.179688 11.738281 -14.011719 C 13.054688 -22.035156 15.6875 -29.941406 18.921875 -37.484375 C 20.480469 -40.957031 22.035156 -44.429688 24.789062 -47.066406 C 25.03125 -47.304688 25.507812 -46.824219 25.628906 -46.945312 C 25.867188 -47.066406 24.910156 -47.425781 24.789062 -47.304688 C 23.472656 -46.585938 22.632812 -45.148438 21.917969 -43.832031 C 19.761719 -40.359375 18.082031 -36.527344 16.648438 -32.695312 C 17.722656 -35.6875 18.921875 -38.683594 20.359375 -41.675781 C 21.199219 -43.234375 22.15625 -45.75 23.710938 -46.945312 C 27.785156 -50.179688 26.226562 -39.519531 25.75 -37.964844 C 25.75 -38.082031 26.226562 -40.71875 26.109375 -40.71875 C 25.867188 -40.71875 24.191406 -34.609375 24.191406 -34.609375 L 24.789062 -35.089844 C 24.191406 -34.132812 22.992188 -33.414062 24.550781 -32.335938 C 26.46875 -31.019531 30.179688 -33.292969 31.019531 -34.96875 C 31.855469 -36.765625 32.09375 -39.160156 32.214844 -40.957031 C 32.453125 -44.070312 31.617188 -45.867188 30.539062 -48.261719 C 29.339844 -50.777344 28.261719 -52.335938 25.03125 -52.8125 C 22.394531 -53.171875 20 -52.09375 17.964844 -50.539062 C 14.96875 -48.382812 12.695312 -45.628906 10.777344 -42.515625 C 10.300781 -41.675781 5.988281 -32.933594 6.109375 -32.8125 L 6.585938 -33.414062 C 5.988281 -32.09375 5.628906 -30.777344 5.148438 -29.582031 C 5.03125 -29.582031 5.390625 -30.660156 5.269531 -30.660156 C 4.550781 -30.777344 2.394531 -24.191406 2.277344 -23.59375 C 1.4375 -21.078125 0.839844 -18.5625 0.71875 -15.929688 C 0.597656 -13.054688 0.121094 -10.179688 0 -7.1875 C 0 -5.628906 0 -3.953125 0.238281 -2.394531 C 0.238281 -1.917969 1.199219 0.597656 1.199219 -0.121094 L 1.796875 1.917969 C 1.675781 1.796875 1.199219 0.597656 1.199219 0.597656 C 0.597656 1.316406 3.832031 5.988281 4.550781 6.707031 C 5.507812 7.785156 6.945312 8.261719 8.382812 8.503906 C 13.171875 9.101562 17.722656 6.347656 21.199219 3.472656 C 27.183594 -1.558594 33.054688 -7.785156 37.484375 -14.25 C 39.28125 -17.007812 41.316406 -19.519531 43.351562 -22.15625 Z M 8.261719 -30.898438 C 8.023438 -29.699219 7.664062 -28.382812 7.1875 -27.304688 C 6.828125 -26.46875 5.75 -25.75 5.628906 -25.148438 C 5.867188 -27.183594 7.425781 -29.222656 8.382812 -31.496094 C 8.382812 -31.257812 8.261719 -31.019531 8.261719 -30.898438 Z M 3.832031 -16.886719 C 3.351562 -16.046875 3.351562 -14.492188 3.351562 -13.171875 C 3.234375 -14.609375 3.234375 -16.167969 3.710938 -17.605469 C 3.710938 -17.605469 4.070312 -17.125 3.832031 -16.886719 Z M 12.453125 -19.761719 C 12.933594 -21.675781 13.53125 -23.59375 14.132812 -25.507812 Z M 4.070312 -19.160156 C 3.953125 -18.800781 3.710938 -18.324219 3.710938 -18.082031 C 3.710938 -18.683594 3.710938 -19.28125 4.3125 -19.519531 Z M 14.609375 -26.945312 C 14.492188 -26.828125 14.492188 -26.828125 14.492188 -26.707031 C 14.492188 -26.945312 14.492188 -27.183594 14.609375 -27.425781 Z M 14.609375 -26.945312 "/></g></g></g><g fill="#1b2024" fill-opacity="1"><g transform="translate(667.544759, 153.834954)"><g><path d="M 63.351562 -28.980469 C 63.234375 -31.136719 61.675781 -30.539062 60.597656 -29.582031 C 60 -28.980469 52.214844 -20.359375 52.574219 -19.761719 C 52.8125 -19.761719 53.171875 -19.761719 53.414062 -20 C 51.136719 -17.722656 47.542969 -15.570312 44.789062 -13.53125 C 42.035156 -11.378906 38.921875 -7.425781 35.089844 -7.1875 C 34.730469 -7.1875 34.371094 -7.066406 33.890625 -7.1875 C 32.214844 -7.425781 28.144531 -14.730469 27.785156 -16.289062 C 27.902344 -15.089844 30.660156 -9.699219 31.378906 -8.503906 C 28.621094 -11.617188 27.183594 -16.289062 26.46875 -20.480469 C 26.585938 -20.121094 26.828125 -19.761719 26.945312 -19.761719 C 27.304688 -19.878906 26.828125 -22.273438 26.828125 -22.394531 C 27.066406 -22.632812 28.863281 -23.113281 29.339844 -23.351562 C 31.976562 -24.429688 34.492188 -25.75 37.003906 -27.183594 C 41.675781 -29.699219 46.347656 -32.695312 50.179688 -36.40625 C 54.371094 -40.597656 57.964844 -46.46875 52.453125 -51.257812 C 46.945312 -55.929688 39.160156 -49.699219 34.96875 -45.988281 C 30.898438 -42.394531 27.425781 -38.203125 24.191406 -33.890625 C 22.753906 -31.738281 21.199219 -29.699219 19.878906 -27.542969 C 19.042969 -26.347656 16.40625 -23.351562 16.648438 -21.917969 C 16.648438 -21.917969 18.921875 -24.671875 19.042969 -24.789062 C 18.203125 -23.59375 17.363281 -22.273438 16.648438 -20.957031 C 16.648438 -21.078125 14.730469 -18.441406 14.492188 -17.964844 L 11.257812 -12.335938 C 12.574219 -17.964844 14.132812 -23.59375 15.808594 -29.222656 C 16.648438 -32.09375 17.363281 -33.773438 19.28125 -36.046875 C 20.957031 -38.082031 22.632812 -40.121094 24.191406 -42.15625 C 27.785156 -46.707031 31.019531 -51.617188 34.25 -56.527344 C 36.648438 -60.121094 38.441406 -64.789062 41.199219 -67.785156 C 44.550781 -71.734375 47.425781 -77.003906 49.101562 -82.035156 C 50.058594 -84.789062 49.699219 -87.066406 48.382812 -89.820312 C 45.867188 -94.730469 40.839844 -99.160156 35.328125 -96.644531 C 30.777344 -94.609375 27.542969 -89.941406 25.148438 -85.75 C 23.59375 -83.113281 22.15625 -80.359375 20.957031 -77.484375 L 18.5625 -72.453125 C 18.203125 -71.496094 17.84375 -69.941406 17.484375 -69.101562 C 17.484375 -68.980469 17.363281 -68.863281 17.363281 -68.863281 C 16.40625 -66.46875 15.6875 -64.191406 14.851562 -61.796875 C 14.730469 -61.914062 15.449219 -64.191406 15.449219 -64.191406 C 14.851562 -64.191406 12.933594 -58.441406 12.695312 -57.722656 C 11.617188 -54.851562 10.660156 -51.976562 9.699219 -48.980469 C 7.902344 -43.59375 6.46875 -38.082031 5.390625 -32.453125 C 4.429688 -26.347656 2.632812 -20.359375 1.316406 -14.371094 C 0.839844 -11.738281 0 -9.101562 0 -6.46875 C 0 -5.03125 0.238281 -3.472656 1.078125 -2.277344 C 1.316406 -2.035156 3.351562 -0.359375 3.351562 -0.480469 C 3.351562 -0.480469 3.234375 -0.597656 3.234375 -0.71875 C 3.832031 -0.238281 5.03125 0.121094 5.988281 0.238281 C 5.148438 0.238281 4.070312 0.121094 3.832031 -0.238281 C 4.671875 0.957031 7.902344 0.121094 8.144531 0.121094 C 10.898438 -0.480469 11.496094 -4.3125 12.933594 -6.46875 L 18.683594 -16.046875 C 19.160156 -13.53125 20.121094 -10.660156 21.316406 -8.503906 C 21.558594 -7.902344 25.03125 -3.113281 25.269531 -3.351562 C 25.269531 -3.472656 25.148438 -3.710938 25.148438 -3.832031 C 25.628906 -3.234375 26.109375 -2.753906 26.707031 -2.394531 C 26.585938 -2.277344 26.226562 -2.753906 26.109375 -2.515625 C 25.390625 -1.4375 30.539062 0.359375 31.378906 0.359375 C 33.054688 0.238281 34.492188 -0.957031 36.046875 -1.558594 C 37.363281 -2.15625 38.683594 -2.632812 39.878906 -3.59375 C 41.316406 -4.789062 39.761719 -4.070312 40.71875 -4.789062 L 40.71875 -4.550781 C 41.078125 -5.03125 46.46875 -8.023438 46.707031 -8.261719 C 49.460938 -10.300781 51.617188 -13.054688 54.011719 -15.570312 C 56.046875 -17.605469 57.722656 -19.878906 59.402344 -22.035156 C 61.199219 -24.070312 63.59375 -25.75 63.351562 -28.863281 Z M 37.363281 -87.425781 C 38.5625 -89.101562 42.035156 -93.292969 44.191406 -90.417969 C 46.347656 -87.542969 42.632812 -80.71875 41.316406 -77.964844 C 39.519531 -73.890625 37.246094 -69.941406 34.96875 -66.109375 L 31.738281 -60.839844 C 30.539062 -59.042969 28.980469 -57.363281 28.261719 -55.570312 C 28.742188 -56.40625 29.699219 -57.484375 30.300781 -58.203125 L 32.933594 -62.394531 C 34.96875 -65.628906 36.886719 -68.863281 38.683594 -72.214844 C 39.640625 -73.773438 40.597656 -75.570312 41.675781 -77.484375 C 40.480469 -74.96875 39.160156 -72.574219 37.84375 -70.179688 C 32.574219 -60.597656 26.46875 -51.617188 19.878906 -42.992188 C 22.035156 -50.777344 24.3125 -58.5625 27.183594 -66.226562 C 29.941406 -73.414062 32.695312 -81.199219 37.363281 -87.425781 Z M 25.390625 -25.75 C 29.339844 -31.257812 33.414062 -36.648438 38.082031 -41.558594 C 39.160156 -42.753906 45.148438 -49.582031 47.183594 -48.144531 C 49.101562 -46.707031 42.273438 -38.921875 41.316406 -37.84375 C 36.886719 -33.054688 31.496094 -28.144531 25.390625 -25.75 Z M 26.109375 -68.742188 C 27.542969 -72.214844 28.863281 -75.808594 30.539062 -79.402344 C 30.660156 -79.878906 31.855469 -81.4375 32.453125 -82.515625 C 31.855469 -80.957031 30.058594 -78.324219 29.820312 -77.605469 C 27.902344 -72.695312 26.46875 -67.664062 24.789062 -62.632812 C 22.875 -56.644531 20.957031 -50.898438 19.402344 -44.910156 L 19.640625 -45.867188 L 19.519531 -45.75 C 19.519531 -45.867188 19.640625 -45.867188 19.640625 -45.988281 C 21.199219 -53.53125 23.113281 -61.554688 26.109375 -68.742188 Z M 17.484375 -69.101562 L 17.363281 -68.980469 C 17.484375 -68.980469 17.484375 -69.101562 17.484375 -69.101562 Z M 17.363281 -68.863281 L 17.363281 -68.980469 Z M 17.363281 -68.863281 "/></g></g></g><g fill="#1b2024" fill-opacity="1"><g transform="translate(722.15253, 153.834954)"><g><path d="M 45.867188 -29.582031 C 45.867188 -29.460938 45.867188 -29.460938 45.75 -29.582031 L 45.75 -29.699219 C 43.832031 -32.933594 41.316406 -28.503906 40.238281 -26.945312 C 38.203125 -24.191406 36.289062 -21.558594 34.132812 -19.042969 C 32.335938 -16.886719 30.417969 -14.730469 28.980469 -12.453125 C 28.980469 -12.214844 28.742188 -11.617188 28.742188 -11.617188 C 28.261719 -10.898438 27.542969 -10.300781 26.945312 -9.582031 C 25.867188 -8.503906 24.789062 -7.304688 23.59375 -6.226562 C 21.796875 -4.550781 11.738281 4.910156 10.417969 -1.199219 C 9.699219 -4.191406 10.660156 -7.902344 11.257812 -10.777344 C 11.617188 -12.335938 11.976562 -13.773438 12.214844 -15.328125 C 12.453125 -16.527344 12.097656 -17.722656 12.695312 -18.921875 C 13.054688 -19.640625 13.171875 -19.519531 14.011719 -19.761719 L 16.046875 -20.480469 C 17.363281 -20.957031 18.683594 -21.4375 19.878906 -22.15625 C 21.675781 -23.234375 23.351562 -24.550781 24.910156 -25.867188 C 28.621094 -28.980469 32.574219 -32.695312 34.132812 -37.363281 C 34.96875 -40 35.089844 -42.875 33.414062 -45.148438 C 31.855469 -47.183594 29.222656 -48.261719 26.828125 -48.742188 C 20.359375 -49.941406 15.449219 -46.226562 11.738281 -41.316406 C 7.1875 -35.6875 3.953125 -28.742188 2.394531 -21.675781 C 1.558594 -18.203125 1.078125 -14.730469 0.480469 -11.136719 C -0.121094 -7.542969 -0.480469 -4.191406 1.4375 -0.839844 C 1.316406 -2.035156 1.078125 -3.113281 1.078125 -4.191406 C 1.078125 -4.789062 1.316406 -5.390625 1.316406 -5.867188 C 1.316406 -6.109375 1.078125 -6.828125 1.078125 -7.1875 C 1.078125 -8.261719 1.316406 -9.101562 1.558594 -10.179688 C 1.675781 -11.257812 1.558594 -12.335938 1.675781 -13.414062 C 1.796875 -14.609375 2.277344 -15.570312 2.753906 -16.648438 C 3.113281 -17.605469 3.234375 -18.441406 3.59375 -19.402344 C 3.953125 -20.238281 4.191406 -21.199219 4.550781 -22.15625 C 4.671875 -22.753906 5.269531 -23.472656 5.628906 -24.191406 C 5.269531 -23.113281 4.550781 -22.15625 4.3125 -21.199219 C 3.953125 -19.761719 4.191406 -18.203125 4.070312 -16.765625 C 3.832031 -15.210938 3.351562 -13.652344 3.113281 -11.976562 C 2.875 -10.417969 2.15625 -8.980469 1.917969 -7.425781 C 1.675781 -5.988281 1.199219 -4.910156 1.316406 -3.472656 C 1.316406 -2.632812 1.4375 -1.796875 1.558594 -1.078125 C 1.675781 -0.121094 2.277344 0.480469 2.875 1.199219 C 4.910156 3.59375 7.664062 5.507812 10.777344 6.347656 C 12.933594 6.945312 14.851562 6.828125 16.886719 5.75 C 19.761719 4.191406 22.273438 1.796875 24.429688 -0.480469 C 26.46875 -2.753906 28.023438 -5.269531 29.820312 -7.664062 C 31.496094 -9.820312 33.53125 -11.855469 35.210938 -14.011719 L 41.675781 -22.394531 L 45.390625 -27.304688 C 45.988281 -28.023438 46.347656 -28.621094 45.867188 -29.582031 Z M 16.167969 -28.261719 C 16.289062 -28.503906 16.289062 -28.621094 16.289062 -28.621094 C 18.082031 -32.453125 19.402344 -36.527344 21.917969 -40.238281 L 24.070312 -43.113281 C 24.550781 -43.710938 25.390625 -44.789062 26.226562 -45.03125 C 28.023438 -45.390625 28.503906 -42.273438 28.382812 -41.078125 L 27.902344 -38.5625 C 27.785156 -37.84375 28.023438 -37.363281 27.902344 -36.765625 C 27.664062 -36.046875 27.066406 -35.6875 26.707031 -35.089844 L 24.671875 -32.453125 C 21.917969 -29.222656 18.441406 -26.46875 14.609375 -24.429688 C 15.210938 -25.75 15.570312 -27.066406 16.167969 -28.261719 Z M 16.167969 -28.261719 "/></g></g></g><g fill="#1b2024" fill-opacity="1"><g transform="translate(759.395997, 153.834954)"><g><path d="M 49.101562 -29.101562 C 48.382812 -32.214844 45.507812 -28.023438 44.910156 -27.304688 L 38.324219 -18.441406 L 31.855469 -9.941406 L 28.382812 -5.507812 C 28.023438 -5.03125 25.390625 -1.675781 25.628906 -1.675781 C 25.867188 -1.917969 26.226562 -1.917969 26.585938 -2.277344 C 24.789062 -0.359375 18.203125 5.628906 17.007812 4.191406 C 16.046875 2.992188 18.683594 -2.035156 19.042969 -3.234375 C 20.359375 -6.707031 21.558594 -10.300781 22.992188 -13.652344 C 24.550781 -17.125 26.347656 -20.597656 27.785156 -24.070312 C 29.222656 -27.785156 27.066406 -29.101562 23.59375 -29.941406 C 22.035156 -30.300781 20.121094 -30.300781 18.324219 -30.539062 C 18.324219 -30.417969 18.441406 -30.417969 18.441406 -30.417969 C 20 -30.179688 22.273438 -30.058594 24.191406 -29.460938 C 21.316406 -30.300781 17.722656 -29.941406 15.449219 -30.539062 C 13.890625 -30.898438 12.933594 -30.898438 13.171875 -32.695312 C 13.414062 -35.089844 15.929688 -37.605469 16.765625 -39.878906 C 16.765625 -39.761719 15.929688 -37.605469 16.046875 -37.605469 C 16.648438 -37.363281 17.605469 -40.71875 17.605469 -41.199219 C 17.484375 -41.796875 16.046875 -43.59375 15.929688 -42.875 L 16.167969 -42.515625 C 10.417969 -46.46875 3.59375 -38.324219 4.789062 -32.453125 C 5.03125 -31.617188 5.507812 -31.136719 5.867188 -30.179688 C 6.109375 -29.460938 5.867188 -28.621094 6.585938 -27.664062 C 9.101562 -24.550781 13.652344 -24.429688 17.246094 -25.148438 C 16.648438 -24.3125 10.300781 -10.898438 10.660156 -10.777344 L 9.820312 -7.785156 C 9.699219 -7.902344 10.179688 -8.863281 9.941406 -8.863281 C 9.101562 -8.980469 7.425781 -2.035156 7.304688 -1.4375 C 6.828125 1.4375 6.945312 3.953125 8.144531 6.585938 C 8.863281 8.261719 9.699219 9.699219 11.257812 10.660156 C 12.695312 11.617188 14.492188 12.097656 16.167969 11.738281 C 16.765625 11.496094 19.042969 9.941406 18.441406 10.058594 L 19.28125 9.699219 C 19.160156 9.820312 19.042969 9.941406 19.042969 10.058594 C 19.402344 10.179688 24.910156 5.75 25.628906 5.269531 C 29.460938 2.035156 32.574219 -1.917969 35.449219 -5.867188 C 38.324219 -9.941406 41.316406 -14.011719 44.070312 -18.082031 C 45.390625 -20 46.585938 -21.917969 47.542969 -23.953125 C 48.261719 -25.390625 49.460938 -27.425781 49.101562 -29.101562 Z M 13.292969 -14.730469 C 14.132812 -16.886719 15.089844 -18.921875 16.167969 -20.957031 C 16.40625 -21.316406 18.082031 -25.628906 18.921875 -25.867188 C 18.324219 -25.507812 15.808594 -19.640625 15.210938 -18.5625 L 12.933594 -13.292969 C 11.738281 -10.417969 10.417969 -7.425781 9.582031 -4.3125 C 10.417969 -7.902344 11.855469 -11.378906 13.292969 -14.730469 Z M 10.417969 8.261719 C 11.136719 9.222656 12.097656 10.179688 13.414062 10.660156 C 12.335938 10.300781 11.378906 9.699219 10.660156 8.980469 C 10.777344 8.980469 10.777344 9.101562 10.777344 9.222656 C 10.058594 8.261719 9.101562 6.226562 8.980469 5.867188 C 8.621094 4.429688 8.503906 2.753906 8.621094 1.316406 C 8.621094 0.121094 8.742188 -0.839844 8.980469 -1.917969 L 8.980469 -1.796875 C 8.742188 -0.238281 8.621094 1.316406 8.742188 2.992188 L 8.742188 3.59375 C 8.621094 3.472656 8.621094 3.351562 8.621094 3.351562 C 8.621094 3.351562 8.621094 3.472656 8.742188 3.710938 L 8.742188 3.832031 L 9.222656 6.347656 L 8.863281 4.789062 C 9.101562 5.507812 9.699219 6.828125 10.300781 8.144531 L 10.179688 8.023438 C 10.179688 8.144531 10.300781 8.261719 10.417969 8.382812 Z M 13.773438 -31.257812 C 14.371094 -30.777344 15.449219 -30.660156 16.527344 -30.539062 C 15.570312 -30.660156 14.730469 -30.898438 14.132812 -31.378906 C 14.132812 -31.378906 13.414062 -31.976562 13.292969 -32.214844 C 13.292969 -31.976562 13.53125 -31.378906 13.773438 -31.257812 Z M 26.347656 -21.917969 L 23.832031 -16.648438 L 26.347656 -22.035156 Z M 9.101562 -2.277344 C 9.101562 -2.15625 8.980469 -2.035156 8.980469 -1.917969 L 8.980469 -2.035156 C 8.980469 -2.15625 9.101562 -2.15625 9.101562 -2.277344 Z M 26.46875 -22.273438 L 26.46875 -22.15625 L 26.347656 -22.15625 Z M 26.46875 -22.273438 L 26.46875 -22.15625 L 26.347656 -22.15625 Z M 9.222656 -3.832031 C 9.222656 -3.953125 9.339844 -4.070312 9.339844 -4.3125 C 9.339844 -4.070312 9.222656 -3.953125 9.222656 -3.832031 Z M 9.699219 7.1875 C 9.699219 7.1875 9.820312 7.304688 9.820312 7.425781 C 9.820312 7.304688 9.699219 7.304688 9.699219 7.1875 Z M 13.414062 -32.453125 C 13.292969 -32.453125 13.292969 -32.335938 13.292969 -32.335938 Z M 13.414062 -32.453125 "/></g></g></g></svg>