<svg xmlns="http://www.w3.org/2000/svg" xmlns:xlink="http://www.w3.org/1999/xlink" width="1080" zoomAndPan="magnify" viewBox="0 0 810 809.999993" height="1080" preserveAspectRatio="xMidYMid meet" version="1.0"><defs><clipPath id="ad7fda7597"><path d="M 293 125.296875 L 645 125.296875 L 645 285 L 293 285 Z M 293 125.296875 " clip-rule="nonzero"/></clipPath><clipPath id="9f05e37b6f"><path d="M 100.375 274 L 674 274 L 674 684.796875 L 100.375 684.796875 Z M 100.375 274 " clip-rule="nonzero"/></clipPath><clipPath id="5fb0e80dd8"><path d="M 442 406 L 709.375 406 L 709.375 554 L 442 554 Z M 442 406 " clip-rule="nonzero"/></clipPath></defs><g clip-path="url(#ad7fda7597)"><path fill="#3fbb69" d="M 293.414062 284.644531 L 509.867188 125.328125 L 644.664062 284.644531 Z M 293.414062 284.644531 " fill-opacity="1" fill-rule="nonzero"/></g><path stroke-linecap="round" transform="matrix(0.349398, 0, 0, -0.349605, -338.120135, 1148.307394)" fill="none" stroke-linejoin="round" d="M 2285.203097 2754.100556 L 2416.903006 2853.900777 L 2522.799572 2729.798554 " stroke="#ffffff" stroke-width="30" stroke-opacity="1" stroke-miterlimit="10"/><path fill="#ffffff" d="M 518.742188 290.203125 C 521.46875 283.839844 522.96875 276.847656 522.96875 269.472656 C 522.96875 240 498.828125 216.121094 469.058594 216.121094 C 439.253906 216.121094 415.109375 240 415.109375 269.472656 C 415.109375 276.847656 416.613281 283.839844 419.339844 290.203125 L 518.742188 290.203125 " fill-opacity="1" fill-rule="nonzero"/><path fill="#3fbb69" d="M 168.542969 289.609375 L 415.109375 150.570312 L 519.789062 289.609375 Z M 168.542969 289.609375 " fill-opacity="1" fill-rule="nonzero"/><path fill="#ffffff" d="M 413.714844 295.167969 C 416.402344 288.804688 417.90625 281.777344 417.90625 274.433594 C 417.90625 244.964844 393.761719 221.085938 363.996094 221.085938 C 334.226562 221.085938 310.082031 244.964844 310.082031 274.433594 C 310.082031 281.777344 311.585938 288.804688 314.308594 295.167969 L 413.714844 295.167969 " fill-opacity="1" fill-rule="nonzero"/><path stroke-linecap="round" transform="matrix(0.349398, 0, 0, -0.349605, -338.120135, 1148.307394)" fill="none" stroke-linejoin="round" d="M 2003.300448 2723.195113 L 2136.397852 2800.201733 L 2233.898269 2666.401055 " stroke="#ffffff" stroke-width="30" stroke-opacity="1" stroke-miterlimit="10"/><g clip-path="url(#9f05e37b6f)"><path fill="#f4fffa" d="M 673.839844 623.515625 C 673.839844 657.359375 647.703125 684.765625 615.492188 684.765625 L 158.582031 684.765625 C 126.367188 684.765625 100.234375 657.359375 100.234375 623.515625 L 100.234375 335.929688 C 100.234375 302.089844 126.367188 274.644531 158.582031 274.644531 L 615.492188 274.644531 C 647.703125 274.644531 673.839844 302.089844 673.839844 335.929688 L 673.839844 623.515625 " fill-opacity="1" fill-rule="nonzero"/></g><g clip-path="url(#5fb0e80dd8)"><path fill="#412a9d" d="M 709.164062 406.375 L 519.441406 406.375 C 476.882812 406.375 442.398438 439.203125 442.398438 479.722656 C 442.398438 520.242188 476.882812 553.070312 519.441406 553.070312 L 709.164062 553.070312 L 709.164062 406.375 " fill-opacity="1" fill-rule="nonzero"/></g><path fill="#27adf8" d="M 534.359375 479.722656 C 534.359375 496.121094 521.082031 509.441406 504.660156 509.441406 C 488.273438 509.441406 474.964844 496.121094 474.964844 479.722656 C 474.964844 463.328125 488.273438 450.007812 504.660156 450.007812 C 521.082031 450.007812 534.359375 463.328125 534.359375 479.722656 " fill-opacity="1" fill-rule="nonzero"/></svg>